<svg xmlns="http://www.w3.org/2000/svg" width="170mm" height="170mm" viewBox="0 0 170 170"><defs><clipPath id="a" clipPathUnits="userSpaceOnUse"><path fill="#1a1a1a" fill-opacity="0" stroke="#fff" stroke-linecap="round" stroke-linejoin="round" stroke-width="7" d="m-20.442 72.322 32.527-8.529 1.288-14.475-34.412 6.805 3.702-45.135L75.867-6.306 85.694.3v39.373l13.066 8.885V3.632l27.99 26.39 3.273 42.685-26.708-15.385-.289 32.112 31.82 18.33-80.57 59.982-77.793-49.906z"/></clipPath><clipPath id="b" clipPathUnits="userSpaceOnUse"><path fill="#1a1a1a" fill-opacity="0" stroke="#fff" stroke-linecap="round" stroke-linejoin="round" stroke-width="7" d="m-17.53 95.609 61.02-16.291 42.614-9.064 13.868-5.125 59.43 34.186-4.786-102.332-179.112-4.79z"/></clipPath><clipPath id="c" clipPathUnits="userSpaceOnUse"><path fill="#1a1a1a" fill-opacity="0" stroke="#fff" stroke-linecap="round" stroke-linejoin="round" stroke-width="7" d="M95.806 163.227v-72.9l-17.869 13.508v61.683l-111.246-55.204 5.115-20.198 41.68-11.104V64.743l-46.29 12.332 1.525-56.054L73.408-30.217 77.734-.983v36.968l13.803 8.468V-4.05l50.837 36.115 1.422 138.438z"/></clipPath></defs><g fill="none"><path stroke="#f7f5fb" stroke-width="9.719" d="m104.087 111.14-38.76 22.378a20.622 20.622 0 0 1-20.622 0L5.946 111.141A20.622 20.622 60 0 1-4.365 93.28V48.526a20.622 20.622 120 0 1 10.311-17.86L44.706 8.29a20.622 20.622 0 0 1 20.622 0l38.759 22.378a20.622 20.622 60 0 1 10.31 17.859v44.755a20.622 20.622 120 0 1-10.31 17.86z" clip-path="url(#a)" transform="matrix(.71945 0 0 .721 45.418 35.433)"/><path stroke="#07d3fa" stroke-width="11.6" d="m107.982 108.892-46.55 26.875a12.832 12.832 0 0 1-12.831 0L2.05 108.892a12.832 12.832 60 0 1-6.416-11.113V44.03A12.832 12.832 120 0 1 2.05 32.915L48.6 6.04a12.832 12.832 0 0 1 12.831 0l46.55 26.876a12.832 12.832 60 0 1 6.416 11.112V97.78a12.832 12.832 120 0 1-6.416 11.113z" clip-path="url(#b)" transform="matrix(.60237 0 0 .60458 51.86 43.76)"/><path stroke="#0e6ba8" stroke-width="14.386" d="m113.21 105.873-57.006 32.913a2.375 2.375 0 0 1-2.375 0l-57.006-32.913a2.375 2.375 60 0 1-1.188-2.057V37.991a2.375 2.375 120 0 1 1.188-2.057L53.829 3.022a2.375 2.375 0 0 1 2.375 0l57.006 32.912a2.375 2.375 60 0 1 1.188 2.057v65.825a2.375 2.375 120 0 1-1.188 2.057z" clip-path="url(#c)" transform="matrix(.4852 0 0 .488 58.306 51.954)"/><path stroke="#f7f5fb" stroke-linecap="round" stroke-linejoin="round" stroke-width="7" d="m69.71 127.187.023-47.33a3.668 3.668 0 0 1 1.834-3.174l11.6-6.698a3.666 3.666 0 0 1 3.666 0l11.6 6.698a3.666 3.666 0 0 1 1.833 3.175v13.395a3.666 3.666 0 0 1-1.833 3.175l-11.6 6.697a3.666 3.666 0 0 1-3.666 0l-2.88-1.663"/></g></svg>